<svg xmlns="http://www.w3.org/2000/svg" width="432" height="432" viewBox="0 0 108 108">
<g>
  <circle cx="71.488" cy="73.363" r="9.117" fill="#101613"/>
  <circle cx="36.512" cy="73.363" r="9.117" fill="#101613"/>
  <circle cx="36.512" cy="44.015" r="9.117" fill="#101613"/>
  <circle cx="71.488" cy="44.015" r="9.117" fill="#101613"/>
  <circle cx="54.000" cy="35.244" r="11.983" fill="#101613"/>
  <path fill-rule="evenodd" fill="#101613" d="M 31.50,58.69 a 22.50,26.05 0 1,0 44.99,0 a 22.50,26.05 0 1,0 -44.99,0 Z M 34.19,58.69 a 19.81,23.37 0 1,1 39.63,0 a 19.81,23.37 0 1,1 -39.63,0 Z"/>
  <path class="scute" fill="#101613" d="M 68.173,58.689 L 61.087,70.963 L 46.913,70.963 L 39.827,58.689 L 46.913,46.415 L 61.087,46.415 Z"/>
  <path class="scute" fill="#101613" d="M 69.765,59.634 L 73.424,59.634 L 73.314,61.967 L 72.981,64.293 L 72.416,66.602 L 71.607,68.880 L 70.538,71.102 L 69.192,73.234 L 67.557,75.226 L 65.628,77.016 L 62.678,71.908 Z"/>
  <path class="scute" fill="#101613" d="M 61.087,72.981 L 64.036,78.089 L 61.827,79.602 L 59.373,80.759 L 56.736,81.487 L 54.000,81.736 L 51.264,81.487 L 48.627,80.759 L 46.173,79.602 L 43.964,78.089 L 46.913,72.981 Z"/>
  <path class="scute" fill="#101613" d="M 45.322,71.908 L 42.372,77.016 L 40.443,75.226 L 38.808,73.234 L 37.462,71.102 L 36.393,68.880 L 35.584,66.602 L 35.019,64.293 L 34.686,61.967 L 34.576,59.634 L 38.235,59.634 Z"/>
  <path class="scute" fill="#101613" d="M 38.235,57.744 L 34.576,57.744 L 34.686,55.411 L 35.019,53.085 L 35.584,50.775 L 36.393,48.498 L 37.462,46.275 L 38.808,44.144 L 40.443,42.151 L 42.372,40.362 L 45.322,45.470 Z"/>
  <path class="scute" fill="#101613" d="M 46.913,44.396 L 43.964,39.288 L 46.173,37.776 L 48.627,36.619 L 51.264,35.891 L 54.000,35.642 L 56.736,35.891 L 59.373,36.619 L 61.827,37.776 L 64.036,39.288 L 61.087,44.396 Z"/>
  <path class="scute" fill="#101613" d="M 62.678,45.470 L 65.628,40.362 L 67.557,42.151 L 69.192,44.144 L 70.538,46.275 L 71.607,48.498 L 72.416,50.775 L 72.981,53.085 L 73.314,55.411 L 73.424,57.744 L 69.765,57.744 Z"/>
</g>
</svg>
